<svg width="449" height="416" viewBox="0 0 449 416" fill="none" xmlns="http://www.w3.org/2000/svg">
<path fill-rule="evenodd" clip-rule="evenodd" d="M36.3106 1.70676C19.4076 6.25176 6.14962 19.6988 1.69062 36.8188C-0.58838 45.5668 -0.551382 306.827 1.72962 315.584C6.22262 332.832 19.5506 346.117 36.8916 350.634C41.3676 351.8 49.3376 352.126 73.3626 352.126H104.107L104.403 379.055C104.682 404.444 104.817 406.142 106.761 408.743C110.645 413.942 113.89 415.626 120.022 415.626L122.5 414.5L177.199 383.895L228.699 352.164L317.239 352.145C413.448 352.124 411.101 352.25 422.412 346.518C429.462 342.946 438.315 334.261 442.049 327.255C448.524 315.107 448.199 323.099 448.199 176.126C448.199 59.4048 448.006 41.8038 446.668 36.6678C442.175 19.4198 428.847 6.13476 411.506 1.61776C403.009 -0.595242 44.5546 -0.511242 36.3106 1.70676ZM141.342 147.063C148.22 150.296 152.544 154.425 156.251 161.301C159.368 167.082 159.662 168.357 159.662 176.126C159.662 183.889 159.367 185.173 156.264 190.927C152.48 197.945 149.342 200.975 141.806 204.891C137.466 207.146 135.422 207.548 128.199 207.567C120.409 207.587 119.171 207.304 113.374 204.178C106.514 200.479 102.452 196.232 99.0066 189.157C95.7546 182.479 95.8616 169.562 99.2256 162.626C103.377 154.069 111.477 147.417 120.699 144.994C125.605 143.704 136.526 144.799 141.342 147.063ZM237.342 147.063C244.22 150.296 248.544 154.425 252.251 161.301C255.368 167.082 255.662 168.357 255.662 176.126C255.662 183.889 255.367 185.173 252.264 190.927C248.48 197.945 245.342 200.975 237.806 204.891C233.466 207.146 231.422 207.548 224.199 207.567C216.409 207.587 215.171 207.304 209.374 204.178C202.514 200.479 198.452 196.232 195.007 189.157C191.755 182.479 191.862 169.562 195.226 162.626C199.377 154.069 207.477 147.417 216.699 144.994C221.605 143.704 232.526 144.799 237.342 147.063ZM333.342 147.063C340.22 150.296 344.544 154.425 348.251 161.301C351.368 167.082 351.662 168.357 351.662 176.126C351.662 183.889 351.367 185.173 348.264 190.927C344.48 197.945 341.342 200.975 333.806 204.891C329.466 207.146 327.422 207.548 320.199 207.567C312.409 207.587 311.171 207.304 305.374 204.178C298.514 200.479 294.452 196.232 291.007 189.157C287.755 182.479 287.862 169.562 291.226 162.626C295.377 154.069 303.477 147.417 312.699 144.994C317.605 143.704 328.526 144.799 333.342 147.063Z" fill="black"/>
</svg>
