<svg width="511" height="512" viewBox="0 0 511 512" fill="none" xmlns="http://www.w3.org/2000/svg">
<path fill-rule="evenodd" clip-rule="evenodd" d="M236.968 0.24712C235.043 0.47312 229.193 1.12212 223.968 1.68912C190.975 5.26912 154.439 17.6491 124.957 35.2401C87.435 57.6271 56.938 88.1241 34.551 125.646C17.251 154.641 5.155 189.98 1.011 223.631C-0.337 234.585 -0.337 276.729 1.011 287.683C10.59 365.482 56.464 435.208 124.957 476.074C192.017 516.086 275.775 522.572 349.468 493.462C360.669 489.037 384.697 476.864 389.577 473.142C394.594 469.315 397.349 462.633 396.66 455.962C395.615 445.84 388.804 439.012 378.713 437.97C373.66 437.449 372.818 437.739 359.945 444.443C326.127 462.056 297.286 470.024 262.468 471.375C167.464 475.06 79.751 413.796 50.061 323.02C40.453 293.642 37.111 264.592 39.995 235.513C43.259 202.602 55.609 166.169 71.948 141.251C101.098 96.7941 140.072 66.2961 187.605 50.7501C250.107 30.3081 315.822 38.6181 371.679 74.0281C376.721 77.2251 382.562 80.2381 384.658 80.7241C400.306 84.3511 413.811 67.7451 407.078 53.1571C404.757 48.1281 402.742 46.3491 390.968 38.9351C359.469 19.1001 324.21 6.57412 285.968 1.63412C277.136 0.49312 243.084 -0.47088 236.968 0.24712ZM484.277 41.8871C482.522 42.4511 479.746 44.0921 478.108 45.5351C476.47 46.9771 428.005 106.882 370.408 178.657C312.811 250.432 264.737 309.935 263.577 310.885C260.157 313.688 255.48 314.127 251.538 312.015C249.631 310.993 224.7 287.987 196.134 260.891C167.569 233.795 143.134 210.805 141.833 209.801C133.998 203.757 123.329 204.531 116.2 211.66C108.919 218.942 108.107 229.808 114.269 237.524C117.705 241.826 216.536 335.743 223.99 341.789C244.422 358.361 272.966 357.25 291.609 339.157C298.185 332.775 506.358 74.1881 508.701 69.4901C516.597 53.6621 501.329 36.4061 484.277 41.8871ZM475.975 178.25C465.35 182.857 461.935 192.407 465.501 207.534C470.106 227.069 471.94 253.749 470.048 273.657C466.76 308.239 456.315 339.538 438.006 369.675C430.336 382.3 429.495 386.759 433.24 394.941C435.18 399.178 436.771 401.038 440.116 402.981C445.874 406.324 451.031 407.179 456.392 405.678C463.768 403.613 467.956 398.538 479.524 377.643C509.177 324.085 518.255 259.055 504.449 199.095C502.446 190.394 501.231 187.218 498.756 184.216C493.109 177.365 483.699 174.901 475.975 178.25Z" fill="url(#paint0_linear_260_4)"/>
<defs>
<linearGradient id="paint0_linear_260_4" x1="204" y1="212" x2="481" y2="368" gradientUnits="userSpaceOnUse">
<stop stop-color="#D50054"/>
<stop offset="1" stop-color="#FF6B00"/>
</linearGradient>
</defs>
</svg>
