<svg width="512" height="512" viewBox="0 0 512 512" fill="none" xmlns="http://www.w3.org/2000/svg">
<path fill-rule="evenodd" clip-rule="evenodd" d="M236.441 0.481557C199.339 4.03756 171.137 11.9316 140.316 27.3896C99.7528 47.7326 62.1408 82.2466 37.4038 121.827C19.5448 150.4 6.51575 187.345 1.25475 224.327C-0.41825 236.088 -0.41825 275.566 1.25475 287.327C5.44475 316.782 13.2297 342.584 25.3927 367.327C39.1537 395.321 52.6327 414.128 74.8857 436.382C96.8958 458.391 115.996 472.135 142.941 485.353C161.742 494.576 173.881 499.065 192.941 503.846C242.955 516.391 293.116 513.985 341.98 496.699C356.893 491.424 382.747 478.455 395.941 469.631C426.176 449.411 453.245 421.671 472.838 390.827C480.04 379.488 491.616 355.565 496.338 342.259C519.83 276.062 515.741 205.013 484.867 142.934C472.407 117.881 458.536 98.2456 439.06 78.0926C417.606 55.8906 396.045 40.1936 367.941 26.3166C338.305 11.6816 310.712 3.87256 277.941 0.844557C267.753 -0.0964431 244.592 -0.299443 236.441 0.481557ZM290.941 34.7556C353.748 45.3096 406.749 79.5756 442.076 132.467C459.905 159.159 471.671 189.682 477.101 223.327C479.576 238.668 479.576 272.986 477.101 288.327C466.325 355.097 429.778 410.539 372.941 446.339C348.603 461.669 319.277 472.414 287.941 477.483C272.546 479.973 238.267 479.966 222.941 477.47C157.248 466.773 103.139 431.805 67.2018 376.827C50.4228 351.157 39.0958 321.16 33.7848 288.327C31.3028 272.978 31.3028 238.676 33.7848 223.327C41.8178 173.667 62.8397 132.15 97.3497 97.7906C135.591 59.7175 183.515 37.3616 237.441 32.4416C248.259 31.4546 279.279 32.7966 290.941 34.7556ZM120.891 193.234C114.211 196.143 110.483 203.743 111.893 211.577C112.491 214.898 120.313 223.072 180.255 283.013C240.196 342.955 248.37 350.777 251.691 351.375C261.105 353.069 257.124 356.516 330.627 283.013C404.108 209.533 400.718 213.446 398.969 204.126C398.046 199.204 392.064 193.222 387.142 192.299C377.878 190.561 381.047 187.863 315.687 253.137L255.433 313.313L195.687 253.616C162.548 220.504 134.687 193.453 133.126 192.873C129.36 191.474 124.61 191.614 120.891 193.234Z" fill="#707070"/>
</svg>
