<svg width="512" height="512" viewBox="0 0 512 512" fill="none" xmlns="http://www.w3.org/2000/svg">
<path fill-rule="evenodd" clip-rule="evenodd" d="M135.735 1.64735L133 3.79835V22.2264C133 32.3614 132.641 40.6534 132.203 40.6534C131.765 40.6534 126.252 38.9134 119.953 36.7864C113.654 34.6604 104.113 31.8714 98.752 30.5904L89.003 28.2604L86.252 30.3144L83.5 32.3684L83.241 85.7934L82.983 139.217L70.121 142.855C63.048 144.855 52.479 148.362 46.635 150.647C36.173 154.737 33 157.117 33 160.876C33 162.425 32.008 162.654 25.25 162.659C12.003 162.668 5.258 165.672 1.905 173.054C0.124 176.976 0.043 182.231 0.022 294.792C0.001 405.4 0.105 412.554 1.75 414.482C4.462 417.66 9.91 417.743 13 414.653C14.977 412.676 15 411.32 15 296.275C15 197.448 15.212 179.722 16.408 178.73C17.28 178.006 20.605 177.674 25.158 177.857L32.5 178.153L32.753 327.333L33.007 476.513L35.638 478.583L38.27 480.653H256H473.73L476.362 478.583L478.993 476.513L479.247 327.333L479.5 178.153L487.095 177.864C492.656 177.652 495 177.948 495.848 178.97C496.717 180.017 496.943 219.77 496.753 338.259L496.5 496.153L387.569 496.407C281.513 496.655 278.584 496.611 276.569 494.75C271.813 490.356 265.737 488.164 257.309 487.803C250.127 487.496 248.402 487.78 243.312 490.111C240.119 491.572 236.573 493.645 235.434 494.715C233.403 496.623 231.174 496.657 124.431 496.407L15.5 496.153L15 473.821C14.538 453.189 14.352 451.38 12.559 450.071C9.726 448.002 4.355 448.298 2 450.653C0.118 452.535 0 453.986 0 475.193C0 495.338 0.201 498.127 1.894 501.443C4.233 506.026 6.504 508.13 11.254 510.115C14.493 511.468 28.408 511.653 126.933 511.653H238.93L242.215 508.832C248.483 503.448 250.258 502.653 256 502.653C261.742 502.653 263.517 503.448 269.785 508.832L273.07 511.653H385.067C483.592 511.653 497.507 511.468 500.746 510.115C505.496 508.13 507.767 506.026 510.106 501.443C511.941 497.847 511.999 492.781 511.978 337.443C511.957 183.288 511.885 176.996 510.095 173.054C506.752 165.695 499.992 162.668 486.875 162.659L479.25 162.653L478.659 159.698C477.881 155.809 475.067 154.098 461.121 149.037L449.5 144.819L449.234 118.796L448.967 92.7724L446.349 90.7133C444.3 89.1013 442.29 88.6554 437.115 88.6634C428.441 88.6774 408.989 90.3663 396.713 92.1723C351.953 98.7563 304.572 118.175 270.809 143.773C262.209 150.293 262.628 150.456 261.516 140.153C260.564 131.332 256.372 113.123 252.842 102.47C236.373 52.7794 204.752 19.7754 159.112 4.64235C143.332 -0.590649 139.245 -1.11365 135.735 1.64735ZM167.011 23.5524C183.03 30.4584 199.367 42.5404 210.419 55.6534C229.289 78.0434 240.376 104.209 246.648 141.153C248.164 150.084 248.387 164.083 248.731 272.128C248.943 338.665 248.886 392.872 248.603 392.589C248.32 392.307 245.457 386.886 242.24 380.544C234.321 364.931 226.522 354.091 214.535 342.036C198.862 326.274 179.777 314.711 157.564 307.521L148 304.425V160.593V16.7614L153.237 18.3164C156.117 19.1714 162.316 21.5274 167.011 23.5524ZM112.244 50.0564C119.535 52.4784 127.188 55.1844 129.25 56.0694L133 57.6804V185.444C133 297.704 133.183 313.469 134.508 315.361C135.499 316.776 137.921 317.91 141.566 318.667C144.618 319.3 151.027 321.136 155.807 322.747C194.747 335.864 222.451 364.67 237.465 407.654C241.094 418.045 245.459 434.527 244.765 435.221C244.567 435.419 241.453 431.659 237.845 426.867C205.2 383.509 159.629 351.539 110 337.177L98.5 333.849L98.247 189.751C98.107 110.497 98.217 45.6534 98.491 45.6534C98.765 45.6534 104.954 47.6344 112.244 50.0564ZM434.217 143.549C434.484 181.158 434.609 183.566 436.405 185.549C438.891 188.295 444.305 188.348 447 185.653C448.77 183.883 449 182.32 449 172.046C449 161.386 449.143 160.497 450.75 161.154C451.712 161.547 455.087 162.762 458.25 163.853L464 165.837V302.361V438.886L461.75 438.388C460.512 438.114 455.225 436.703 450 435.253C436.717 431.567 416.812 428 401.58 426.576C385.995 425.118 355.389 425.886 342.541 428.056C337.614 428.888 333.421 429.407 333.223 429.21C332.633 428.619 347.808 423.021 360.097 419.296C382.936 412.373 403.928 408.876 429.167 407.789C442.515 407.214 445.141 406.835 446.917 405.229C448.998 403.345 449 403.272 449 313.609C449 229.486 448.89 223.739 447.242 221.704C444.844 218.742 439.555 218.653 436.682 221.526L434.5 223.708L434.233 308.029L433.967 392.35L422.45 393.008C368.707 396.077 313.862 415.415 273.024 445.695C268.605 448.972 264.766 451.653 264.494 451.653C264.222 451.653 264 388.013 264 310.231V168.808L269.25 164.194C281.7 153.251 302.524 139.902 321.5 130.698C353.464 115.195 394.154 105.125 430.217 103.791L433.934 103.653L434.217 143.549ZM83 249.498C83 337.607 83.107 343.439 84.75 344.921C85.713 345.788 91.035 347.646 96.578 349.05C137.202 359.333 173.12 379.968 203.804 410.652C212.857 419.705 227.704 437.399 232.183 444.473L234.069 447.452L223.507 443.087C205.319 435.571 190.977 431.563 169.5 427.994C160.822 426.551 153.222 426.176 133.5 426.216C105.016 426.274 91.067 427.942 66.5 434.231C58.8 436.203 51.487 438.056 50.25 438.351L48 438.886V302.351V165.816L54.75 163.507C67.87 159.02 78.527 155.838 80.75 155.746L83 155.653V249.498ZM157.144 441.697C180.893 444.092 205.823 450.927 224.833 460.256L235.5 465.491L141.75 465.572L48 465.653V460.283V454.912L58.75 451.771C76.08 446.708 90.918 443.869 113.5 441.295C120.58 440.488 147.62 440.737 157.144 441.697ZM414.393 443.115C428.079 445.305 440.593 448.096 453.25 451.782L464 454.912V460.283V465.653L370.25 465.572L276.5 465.491L287.167 460.256C305.358 451.329 330.462 444.271 353.047 441.735C365.189 440.371 402.491 441.21 414.393 443.115Z" fill="url(#paint0_linear_261_7)"/>
<defs>
<linearGradient id="paint0_linear_261_7" x1="255.99" y1="0" x2="255.99" y2="511.653" gradientUnits="userSpaceOnUse">
<stop stop-color="#D50054"/>
<stop offset="1" stop-color="#FF6B00"/>
</linearGradient>
</defs>
</svg>
