<svg xmlns="http://www.w3.org/2000/svg" viewBox="0 0 364.981 135.444"><g data-name="Data" fill="#9c426c"><path d="M75.554 78.078h27.027v36.366H75.554zM142.929 85.414h27.027v29.03h-27.027zM210.303 59.931h27.027v54.513h-27.027zM277.678 53.445h27.027v61h-27.027z"/></g><g data-name="Grid" fill="none" stroke="#4c4c4d" stroke-miterlimit="10" stroke-width=".283"><path d="M54.218 114.485h1.86M54.218 105.69h1.86M54.218 96.895h1.86M54.218 88.1h1.86M54.218 79.305h1.86M54.218 70.509h1.86M54.218 61.714h1.86M54.218 52.919h1.86M54.218 44.124h1.86M54.218 35.329h1.86M54.218 26.533h1.86M56.078 114.485h267.599M55.965 26.393v88.093M55.921 114.444v2.655M122.826 114.444v2.655M189.731 114.444v2.655M256.635 114.444v2.655M323.54 114.444v2.655"/></g><g data-name="Type" fill="#4c4c4d"><path d="M47.042 112.191c1.032 0 1.211.63 1.211 1.937s-.18 1.937-1.21 1.937-1.212-.63-1.212-1.937.18-1.937 1.211-1.937zm0 .51c-.61 0-.65.466-.65 1.427s.04 1.426.65 1.426.65-.465.65-1.426-.04-1.426-.65-1.426zM49.667 114.173c-.62 0-.906-.32-.906-.99 0-.667.285-.992.906-.992s.9.325.9.991c0 .665-.28.99-.9.99zm0-.45c.27 0 .395-.13.395-.54 0-.412-.125-.537-.395-.537-.275 0-.395.125-.395.536 0 .415.12.54.395.54zm-.36 2.282l2.657-3.754h.516l-2.653 3.754h-.52zm2.817.06c-.62 0-.905-.326-.905-.991 0-.666.285-.991.905-.991s.901.32.901.99c0 .666-.28.992-.9.992zm0-.456c.27 0 .391-.125.391-.535 0-.416-.12-.541-.39-.541-.276 0-.396.13-.396.54 0 .411.12.536.395.536zM43.032 106.784l.815-.035v-2.773l-.935.116v-.386l1.235-.31h.26v3.353l.817.035v.426h-2.192v-.426zM47.042 103.396c1.032 0 1.211.63 1.211 1.937s-.18 1.937-1.21 1.937-1.212-.63-1.212-1.937.18-1.937 1.211-1.937zm0 .51c-.61 0-.65.466-.65 1.427s.04 1.426.65 1.426.65-.465.65-1.426-.04-1.426-.65-1.426zM49.667 105.378c-.62 0-.906-.32-.906-.99 0-.667.285-.992.906-.992s.9.325.9.991c0 .665-.28.99-.9.99zm0-.45c.27 0 .395-.13.395-.54 0-.412-.125-.537-.395-.537-.275 0-.395.125-.395.536 0 .415.12.54.395.54zm-.36 2.282l2.657-3.754h.516l-2.653 3.754h-.52zm2.817.06c-.62 0-.905-.326-.905-.991 0-.666.285-.991.905-.991s.901.32.901.991c0 .665-.28.991-.9.991zm0-.456c.27 0 .391-.125.391-.535 0-.416-.12-.541-.39-.541-.276 0-.396.13-.396.541 0 .41.12.535.395.535zM61.213 122.79h-.672v-4.497h1.464c1.163 0 1.535.521 1.535 1.337 0 .582-.18 1.007-.732 1.199l.942 1.96h-.786l-.815-1.828h-.936v1.829zm0-2.44h.887c.625 0 .708-.355.708-.72 0-.372-.083-.72-.708-.72h-.887v1.44zM65.305 120.296c-.39 0-.707.09-.935.18v-.583c.233-.101.629-.174.983-.174.983 0 1.211.432 1.211 1.068v2.003h-.396l-.108-.24c-.24.198-.575.312-.905.312-.774 0-1.032-.48-1.032-.96 0-.647.42-.923 1.098-.977l.671-.054v-.15c0-.306-.143-.425-.587-.425zm-.042 1.109c-.3.035-.474.15-.474.46 0 .23.096.445.462.445a1.1 1.1 0 0 0 .641-.198v-.78l-.629.073zM68.928 122.82c-.102.023-.27.042-.371.042-.666 0-1.056-.288-1.056-.936v-1.565h-.546v-.414l.546-.155v-.714l.672-.193v.907h.845v.569h-.845v1.487c0 .3.15.444.491.444.103 0 .192-.012.264-.024v.552zM70.735 119.72c1.055 0 1.223.695 1.223 1.523 0 .101-.006.197-.012.294h-1.865c.012.449.174.743.786.743.378 0 .69-.066.953-.18v.576c-.342.144-.731.186-1.055.186-1.002 0-1.361-.6-1.361-1.571 0-.966.353-1.572 1.33-1.572zm-.654 1.35h1.2c0-.41-.025-.769-.546-.769-.492 0-.63.318-.654.768zM73.663 121.29c0-.923.264-1.57 1.332-1.57s1.33.647 1.33 1.57c0 .924-.263 1.572-1.33 1.572s-1.332-.648-1.332-1.571zm1.985 0c0-.64-.084-1.007-.653-1.007s-.654.366-.654 1.008.084 1.007.654 1.007.653-.366.653-1.007zM78.864 118.862a1.322 1.322 0 0 0-.444-.06c-.3 0-.54.114-.54.456v.534h.846v.569h-.846v2.429h-.671v-2.429h-.546v-.414l.546-.155v-.594c0-.642.36-.978 1.163-.978.198 0 .378.03.492.073v.569zM81.756 120.289c-.311 0-.527.084-.69.174v2.327h-.671v-4.497h.672v1.648c.234-.138.497-.222.804-.222.76 0 1.03.378 1.03.954v2.117h-.67v-2.057c0-.306-.157-.444-.475-.444zM83.455 121.29c0-.923.264-1.57 1.332-1.57s1.33.647 1.33 1.57c0 .924-.263 1.572-1.33 1.572s-1.332-.648-1.332-1.571zm1.985 0c0-.64-.084-1.007-.653-1.007s-.654.366-.654 1.008.084 1.007.654 1.007.653-.366.653-1.007zM87.768 120.99c.9.08 1.134.349 1.134.906 0 .516-.318.966-1.278.966-.413 0-.785-.078-.989-.162v-.576c.198.072.516.168.894.168.48 0 .713-.108.713-.371 0-.223-.096-.336-.497-.372-.906-.079-1.128-.36-1.128-.876s.336-.954 1.217-.954c.408 0 .696.048.93.15v.582a2.515 2.515 0 0 0-.918-.168c-.353 0-.576.102-.576.372 0 .21.109.3.498.336zM90.157 122.628v1.66h-.672v-4.496h.396l.108.239c.263-.191.57-.312.971-.312.876 0 1.2.588 1.2 1.572 0 .977-.324 1.571-1.2 1.571-.3 0-.588-.097-.803-.234zm1.325-1.337c0-.558-.09-1.002-.678-1.002-.318 0-.527.108-.647.174v1.655c.12.066.33.174.647.174.588 0 .678-.45.678-1.001zM93.133 118.467a.44.44 0 0 1 .438.437c0 .24-.199.438-.438.438s-.438-.199-.438-.438a.44.44 0 0 1 .438-.437zm-.336 3.585v-2.26h.672v2.255c0 .167.06.227.252.227v.546s-.06.012-.133.012c-.545 0-.791-.264-.791-.78zM96 122.82c-.102.023-.27.042-.372.042-.665 0-1.055-.288-1.055-.936v-1.565h-.546v-.414l.546-.155v-.714l.672-.193v.907h.845v.569h-.845v1.487c0 .3.15.444.491.444.102 0 .192-.012.264-.024v.552zM97.632 120.296c-.39 0-.707.09-.935.18v-.583c.234-.101.63-.174.983-.174.983 0 1.212.432 1.212 1.068v2.003h-.396l-.108-.24c-.24.198-.576.312-.906.312-.774 0-1.031-.48-1.031-.96 0-.647.42-.923 1.097-.977l.672-.054v-.15c0-.306-.144-.425-.588-.425zm-.042 1.109c-.3.035-.473.15-.473.46 0 .23.095.445.461.445a1.1 1.1 0 0 0 .642-.198v-.78l-.63.073zM99.595 122.052v-3.76h.672v3.755c0 .167.06.227.251.227v.546s-.06.012-.132.012c-.545 0-.791-.264-.791-.78zM101.472 118.467a.44.44 0 0 1 .438.437c0 .24-.198.438-.438.438s-.437-.199-.437-.438a.44.44 0 0 1 .437-.437zm-.336 3.585v-2.26h.672v2.255c0 .167.06.227.252.227v.546s-.06.012-.132.012c-.546 0-.792-.264-.792-.78zM102.39 122.79v-.474l1.523-1.937-1.415.006v-.593h2.28v.473l-1.524 1.937 1.59-.006v.594h-2.453zM106.266 120.296c-.39 0-.708.09-.936.18v-.583c.234-.101.63-.174.984-.174.983 0 1.211.432 1.211 1.068v2.003h-.396l-.108-.24c-.24.198-.575.312-.905.312-.774 0-1.032-.48-1.032-.96 0-.647.42-.923 1.098-.977l.671-.054v-.15c0-.306-.143-.425-.587-.425zm-.042 1.109c-.3.035-.474.15-.474.46 0 .23.096.445.462.445a1.1 1.1 0 0 0 .641-.198v-.78l-.629.073zM109.89 122.82c-.103.023-.27.042-.372.042-.666 0-1.056-.288-1.056-.936v-1.565h-.545v-.414l.545-.155v-.714l.672-.193v.907h.845v.569h-.845v1.487c0 .3.15.444.492.444.102 0 .192-.012.264-.024v.552zM110.844 118.467a.44.44 0 0 1 .438.437c0 .24-.198.438-.438.438s-.437-.199-.437-.438a.44.44 0 0 1 .437-.437zm-.336 3.585v-2.26h.672v2.255c0 .167.06.227.252.227v.546s-.06.012-.132.012c-.546 0-.792-.264-.792-.78zM111.907 121.29c0-.923.263-1.57 1.33-1.57s1.332.647 1.332 1.57c0 .924-.264 1.572-1.331 1.572s-1.331-.648-1.331-1.571zm1.984 0c0-.64-.083-1.007-.653-1.007s-.654.366-.654 1.008.084 1.007.654 1.007.653-.366.653-1.007zM116.981 122.79v-2.057c0-.306-.156-.444-.474-.444-.311 0-.527.084-.69.174v2.327h-.671v-2.998h.396l.108.239c.305-.21.647-.312.971-.312.762 0 1.032.378 1.032.954v2.117h-.672zM79.569 131.821c-.256-.376-.626-1.291-.626-2.558s.37-2.182.626-2.557h.375c-.255.375-.63 1.29-.63 2.557s.375 2.182.63 2.558h-.375zM81.945 128.973c0-.326-.19-.425-.501-.425-.325 0-.49.054-.676.16v2.082h-.35v-2.502h.195l.075.21c.235-.176.49-.261.756-.261.595 0 .85.27.85.751v1.802h-.35v-1.817zM84.845 128.748h-2.002v-.33h2.002v.33zm0 .66h-2.002v-.33h2.002v.33zM85.643 130.57l.826-.05v-3.169l-.966.18v-.215l1.166-.33h.14v3.533l.826.05v.22h-1.992v-.22zM88.793 130.46l-.325.956h-.25l.125-.956h.45zM90.564 127.306c-.35 0-.6.05-.94.196v-.341c.205-.095.505-.175.935-.175 1.051 0 1.202.581 1.202 1.001 0 .64-.356 1.136-1.982 2.487l1.982-.01v.326h-2.433v-.255c1.997-1.687 2.077-2.023 2.077-2.548 0-.386-.14-.68-.84-.68zM92.278 129.734c0-.376.19-.796.62-.92a.85.85 0 0 1-.495-.787c0-.546.29-1.041 1.14-1.041s1.142.495 1.142 1.041a.85.85 0 0 1-.496.786c.431.125.621.545.621.921 0 .585-.33 1.106-1.266 1.106s-1.266-.52-1.266-1.106zm.37 0c0 .36.19.796.896.796s.896-.436.896-.796c0-.506-.31-.736-.896-.736s-.896.23-.896.736zm1.667-1.707c0-.33-.135-.73-.771-.73s-.771.4-.771.73c0 .32.205.661.77.661s.772-.34.772-.66zM97.285 129.624c0-.761-.506-.751-.992-.751h-.7v-1.837h1.977v.31h-1.637v1.227a5.21 5.21 0 0 1 .476-.025c.605 0 1.236.12 1.236 1.076 0 1.08-.81 1.216-1.381 1.216-.366 0-.651-.076-.826-.16v-.31c.185.07.445.16.83.16.42 0 1.017-.121 1.017-.906zM98.193 131.821c.255-.376.63-1.291.63-2.558s-.375-2.182-.63-2.557h.375c.255.375.626 1.29.626 2.557s-.37 2.182-.626 2.558h-.375z"/><g><path d="M85.43 72.71h.582v.63h-.582v1.187h-.66V73.34h-1.894v-.408l2.069-2.968h.485v2.746zm-.66 0l.018-1.59-1.115 1.608 1.098-.018zM86.836 74.017l.977-.042v-3.322l-1.121.138v-.461l1.48-.372h.313v4.017l.977.042v.51h-2.626v-.51zM91.197 72.333c-.744 0-1.086-.384-1.086-1.188 0-.798.342-1.187 1.086-1.187s1.08.39 1.08 1.187-.337 1.188-1.08 1.188zm0-.54c.323 0 .473-.157.473-.648 0-.492-.15-.641-.473-.641-.33 0-.474.149-.474.641 0 .497.144.648.474.648zm-.432 2.734l3.184-4.497h.618l-3.178 4.497h-.624zm3.376.072c-.743 0-1.085-.39-1.085-1.187s.342-1.188 1.085-1.188c.744 0 1.08.384 1.08 1.188 0 .798-.336 1.187-1.08 1.187zm0-.546c.324 0 .468-.15.468-.641 0-.498-.144-.648-.468-.648-.33 0-.474.156-.474.648 0 .491.144.641.474.641z"/></g><g><path d="M43.977 95.116c-.32 0-.61.06-.94.194v-.535c.23-.105.565-.175.97-.175 1.021 0 1.217.535 1.217 1.056 0 .565-.31 1.137-1.682 2.247l1.726-.02v.53h-2.452v-.395c1.727-1.516 1.827-1.866 1.827-2.342 0-.325-.135-.56-.666-.56zM47.042 94.6c1.032 0 1.211.63 1.211 1.937s-.18 1.937-1.21 1.937-1.212-.63-1.212-1.937.18-1.937 1.211-1.937zm0 .511c-.61 0-.65.465-.65 1.426s.04 1.427.65 1.427.65-.466.65-1.427-.04-1.426-.65-1.426zM49.667 96.582c-.62 0-.906-.32-.906-.99 0-.666.285-.992.906-.992s.9.326.9.992c0 .665-.28.99-.9.99zm0-.45c.27 0 .395-.13.395-.54 0-.412-.125-.537-.395-.537-.275 0-.395.125-.395.537 0 .415.12.54.395.54zm-.36 2.282l2.657-3.754h.516l-2.653 3.754h-.52zm2.817.06c-.62 0-.905-.326-.905-.99 0-.667.285-.992.905-.992s.901.32.901.991c0 .665-.28.991-.9.991zm0-.456c.27 0 .391-.125.391-.535 0-.416-.12-.54-.39-.54-.276 0-.396.129-.396.54 0 .41.12.535.395.535z"/></g><g><path d="M42.816 86.51v-.535c.205-.1.616-.17 1.001-.17.941 0 1.322.4 1.322 1.026a.88.88 0 0 1-.486.811c.35.09.606.415.606.875 0 .687-.406 1.162-1.432 1.162-.39 0-.78-.065-1.016-.17v-.536c.315.135.646.185.991.185.65 0 .871-.27.871-.64 0-.44-.24-.586-.741-.586h-.7v-.51h.715c.406 0 .606-.22.606-.536 0-.365-.22-.565-.796-.565-.335 0-.63.06-.94.19zM47.042 85.805c1.032 0 1.211.63 1.211 1.937s-.18 1.937-1.21 1.937-1.212-.63-1.212-1.937.18-1.937 1.211-1.937zm0 .511c-.61 0-.65.465-.65 1.426s.04 1.427.65 1.427.65-.466.65-1.427-.04-1.426-.65-1.426zM49.667 87.787c-.62 0-.906-.32-.906-.99 0-.666.285-.992.906-.992s.9.326.9.992c0 .665-.28.99-.9.99zm0-.45c.27 0 .395-.13.395-.54 0-.412-.125-.537-.395-.537-.275 0-.395.125-.395.537 0 .415.12.54.395.54zm-.36 2.282l2.657-3.754h.516l-2.653 3.754h-.52zm2.817.06c-.62 0-.905-.326-.905-.99 0-.667.285-.992.905-.992s.901.32.901.991c0 .665-.28.991-.9.991zm0-.456c.27 0 .391-.125.391-.535 0-.416-.12-.54-.39-.54-.276 0-.396.13-.396.54 0 .41.12.535.395.535z"/></g><g><path d="M44.863 79.307h.486v.526h-.486v.99h-.55v-.99H42.73v-.34l1.727-2.478h.405v2.292zm-.55 0l.015-1.326-.931 1.341.916-.015zM47.042 77.01c1.032 0 1.211.63 1.211 1.937s-.18 1.937-1.21 1.937-1.212-.63-1.212-1.937.18-1.937 1.211-1.937zm0 .511c-.61 0-.65.465-.65 1.426s.04 1.427.65 1.427.65-.466.65-1.427-.04-1.426-.65-1.426zM49.667 78.992c-.62 0-.906-.32-.906-.99 0-.666.285-.992.906-.992s.9.326.9.992c0 .665-.28.99-.9.99zm0-.45c.27 0 .395-.13.395-.54 0-.411-.125-.536-.395-.536-.275 0-.395.125-.395.536 0 .415.12.54.395.54zm-.36 2.282l2.657-3.754h.516l-2.653 3.754h-.52zm2.817.06c-.62 0-.905-.326-.905-.99 0-.667.285-.992.905-.992s.901.32.901.991c0 .665-.28.991-.9.991zm0-.456c.27 0 .391-.125.391-.535 0-.416-.12-.54-.39-.54-.276 0-.396.13-.396.54 0 .41.12.535.395.535z"/></g><g><path d="M42.871 71.924v-.505c.19.075.51.16.926.16.415 0 .85-.106.85-.711 0-.56-.374-.581-.755-.581h-.896v-2.012h2.158v.52h-1.602v.992c.08-.01.36-.015.43-.015.646 0 1.242.12 1.242 1.096 0 1.09-.791 1.222-1.402 1.222-.385 0-.75-.07-.95-.166zM47.042 68.216c1.032 0 1.211.63 1.211 1.936s-.18 1.938-1.21 1.938-1.212-.631-1.212-1.938.18-1.936 1.211-1.936zm0 .51c-.61 0-.65.465-.65 1.426s.04 1.427.65 1.427.65-.466.65-1.427-.04-1.426-.65-1.426zM49.667 70.197c-.62 0-.906-.32-.906-.99 0-.666.285-.991.906-.991s.9.325.9.99c0 .666-.28.991-.9.991zm0-.45c.27 0 .395-.13.395-.54 0-.411-.125-.536-.395-.536-.275 0-.395.125-.395.536 0 .415.12.54.395.54zm-.36 2.282l2.657-3.754h.516l-2.653 3.754h-.52zm2.817.06c-.62 0-.905-.326-.905-.99 0-.667.285-.992.905-.992s.901.32.901.991c0 .665-.28.992-.9.992zm0-.455c.27 0 .391-.125.391-.536 0-.416-.12-.54-.39-.54-.276 0-.396.13-.396.54 0 .41.12.536.395.536z"/></g><g><path d="M43.397 61.25c.15-.214.39-.384.81-.384.916 0 1.027.705 1.027 1.216 0 .506-.18 1.212-1.152 1.212-1.065 0-1.231-.682-1.231-1.728 0-1.22.23-2.146 1.401-2.146.426 0 .746.09.887.17v.535c-.2-.095-.46-.18-.856-.18-.676 0-.881.52-.886 1.306zm.685 1.538c.511 0 .591-.4.591-.706 0-.305-.05-.705-.59-.705-.536 0-.651.41-.651.705 0 .355.105.706.65.706zM47.042 59.42c1.032 0 1.211.63 1.211 1.936s-.18 1.938-1.21 1.938-1.212-.631-1.212-1.938.18-1.936 1.211-1.936zm0 .51c-.61 0-.65.465-.65 1.426s.04 1.427.65 1.427.65-.466.65-1.427-.04-1.426-.65-1.426zM49.667 61.401c-.62 0-.906-.32-.906-.99 0-.666.285-.991.906-.991s.9.325.9.99c0 .666-.28.991-.9.991zm0-.45c.27 0 .395-.13.395-.54 0-.411-.125-.536-.395-.536-.275 0-.395.125-.395.536 0 .415.12.54.395.54zm-.36 2.282l2.657-3.754h.516l-2.653 3.754h-.52zm2.817.06c-.62 0-.905-.326-.905-.99 0-.667.285-.992.905-.992s.901.32.901.991c0 .665-.28.992-.9.992zm0-.455c.27 0 .391-.125.391-.536 0-.416-.12-.54-.39-.54-.276 0-.396.13-.396.54 0 .41.12.536.395.536z"/></g><g><path d="M43.086 54.438l1.612-3.248-1.907.01v-.516h2.502v.371l-1.556 3.383h-.65zM47.042 50.625c1.032 0 1.211.63 1.211 1.936s-.18 1.938-1.21 1.938-1.212-.631-1.212-1.938.18-1.936 1.211-1.936zm0 .51c-.61 0-.65.465-.65 1.426s.04 1.427.65 1.427.65-.466.65-1.427-.04-1.426-.65-1.426zM49.667 52.606c-.62 0-.906-.32-.906-.99 0-.666.285-.991.906-.991s.9.325.9.99c0 .666-.28.991-.9.991zm0-.45c.27 0 .395-.13.395-.54 0-.411-.125-.536-.395-.536-.275 0-.395.125-.395.536 0 .415.12.54.395.54zm-.36 2.282l2.657-3.754h.516l-2.653 3.754h-.52zm2.817.06c-.62 0-.905-.325-.905-.99 0-.666.285-.992.905-.992s.901.32.901.992c0 .665-.28.99-.9.99zm0-.455c.27 0 .391-.125.391-.535 0-.416-.12-.541-.39-.541-.276 0-.396.13-.396.54 0 .41.12.536.395.536z"/></g><g><path d="M42.746 44.572c0-.425.246-.796.576-.905-.26-.131-.456-.416-.456-.786 0-.606.33-1.051 1.176-1.051s1.177.445 1.177 1.05c0 .37-.196.656-.456.787.33.11.576.48.576.905 0 .676-.416 1.132-1.297 1.132s-1.296-.456-1.296-1.132zm2.037-.005c0-.415-.245-.636-.74-.636s-.741.221-.741.636c0 .3.16.646.74.646s.741-.345.741-.646zm-.135-1.661c0-.306-.165-.586-.606-.586s-.605.28-.605.586c0 .295.18.56.605.56s.606-.265.606-.56zM47.042 41.83c1.032 0 1.211.63 1.211 1.936s-.18 1.938-1.21 1.938-1.212-.631-1.212-1.938.18-1.936 1.211-1.936zm0 .51c-.61 0-.65.465-.65 1.426s.04 1.427.65 1.427.65-.466.65-1.427-.04-1.425-.65-1.425zM49.667 43.811c-.62 0-.906-.32-.906-.99 0-.666.285-.991.906-.991s.9.325.9.991c0 .665-.28.99-.9.99zm0-.45c.27 0 .395-.13.395-.54 0-.411-.125-.536-.395-.536-.275 0-.395.125-.395.536 0 .415.12.54.395.54zm-.36 2.282l2.657-3.754h.516l-2.653 3.754h-.52zm2.817.06c-.62 0-.905-.325-.905-.99 0-.666.285-.992.905-.992s.901.32.901.992c0 .665-.28.99-.9.99zm0-.455c.27 0 .391-.125.391-.535 0-.416-.12-.541-.39-.541-.276 0-.396.13-.396.54 0 .41.12.536.395.536z"/></g><g><path d="M44.688 35.077c-.15.215-.39.385-.81.385-.917 0-1.027-.705-1.027-1.216 0-.506.18-1.211 1.151-1.211 1.066 0 1.232.68 1.232 1.726 0 1.221-.236 2.148-1.407 2.148-.425 0-.75-.09-.89-.171v-.535c.2.095.465.18.86.18.676 0 .886-.521.89-1.306zm-.686-1.537c-.51 0-.59.4-.59.706s.05.706.59.706c.536 0 .65-.411.65-.706 0-.356-.104-.706-.65-.706zM47.042 33.035c1.032 0 1.211.63 1.211 1.936s-.18 1.938-1.21 1.938-1.212-.631-1.212-1.938.18-1.936 1.211-1.936zm0 .51c-.61 0-.65.465-.65 1.426s.04 1.427.65 1.427.65-.466.65-1.427-.04-1.425-.65-1.425zM49.667 35.016c-.62 0-.906-.32-.906-.99 0-.666.285-.991.906-.991s.9.325.9.991c0 .665-.28.99-.9.99zm0-.45c.27 0 .395-.13.395-.54 0-.411-.125-.536-.395-.536-.275 0-.395.125-.395.536 0 .415.12.54.395.54zm-.36 2.282l2.657-3.754h.516l-2.653 3.754h-.52zm2.817.06c-.62 0-.905-.325-.905-.99 0-.666.285-.992.905-.992s.901.32.901.992c0 .665-.28.99-.9.99zm0-.455c.27 0 .391-.125.391-.535 0-.416-.12-.541-.39-.541-.276 0-.396.13-.396.54 0 .41.12.536.395.536z"/></g><g><path d="M40.032 27.627l.815-.035V24.82l-.935.115v-.386l1.235-.31h.26v3.353l.817.035v.426h-2.192v-.426zM44.042 24.24c1.032 0 1.211.63 1.211 1.936s-.18 1.937-1.21 1.937-1.212-.63-1.212-1.937.18-1.937 1.211-1.937zm0 .51c-.61 0-.65.465-.65 1.426s.04 1.427.65 1.427.65-.466.65-1.427-.04-1.426-.65-1.426zM47.042 24.24c1.032 0 1.211.63 1.211 1.936s-.18 1.937-1.21 1.937-1.212-.63-1.212-1.937.18-1.937 1.211-1.937zm0 .51c-.61 0-.65.465-.65 1.426s.04 1.427.65 1.427.65-.466.65-1.427-.04-1.426-.65-1.426zM49.667 26.22c-.62 0-.906-.32-.906-.99 0-.665.285-.99.906-.99s.9.325.9.99c0 .666-.28.99-.9.99zm0-.45c.27 0 .395-.13.395-.54 0-.41-.125-.535-.395-.535-.275 0-.395.125-.395.536 0 .415.12.54.395.54zm-.36 2.283l2.657-3.754h.516l-2.653 3.754h-.52zm2.817.06c-.62 0-.905-.326-.905-.99 0-.667.285-.992.905-.992s.901.32.901.991c0 .665-.28.991-.9.991zm0-.456c.27 0 .391-.125.391-.535 0-.416-.12-.54-.39-.54-.276 0-.396.13-.396.54 0 .41.12.535.395.535z"/></g><g><path d="M148.22 120.77h-1.87v1.403h2.063v.617h-2.735v-4.497h2.735v.617h-2.063v1.241h1.87v.618zM149.74 122.79h-.672v-4.497h1.464c1.163 0 1.535.521 1.535 1.337 0 .582-.18 1.007-.732 1.199l.942 1.96h-.786l-.815-1.828h-.936v1.829zm0-2.44h.887c.624 0 .708-.355.708-.72 0-.372-.084-.72-.708-.72h-.887v1.44zM154.432 119.792l.695 2.17.696-2.17h.726l-1.146 3.051h-.552l-1.145-3.051h.726zM157.354 118.467a.44.44 0 0 1 .438.437c0 .24-.198.438-.438.438s-.438-.199-.438-.438a.44.44 0 0 1 .438-.437zm-.336 3.585v-2.26h.672v2.255c0 .167.06.227.252.227v.546s-.06.012-.133.012c-.545 0-.791-.264-.791-.78zM159.574 120.99c.899.08 1.133.349 1.133.906 0 .516-.318.966-1.277.966-.414 0-.786-.078-.99-.162v-.576c.198.072.516.168.894.168.48 0 .713-.108.713-.371 0-.223-.095-.336-.497-.372-.906-.079-1.128-.36-1.128-.876s.336-.954 1.218-.954c.407 0 .695.048.93.15v.582a2.515 2.515 0 0 0-.919-.168c-.353 0-.575.102-.575.372 0 .21.108.3.498.336zM161.686 118.467a.44.44 0 0 1 .438.437c0 .24-.198.438-.438.438s-.438-.199-.438-.438a.44.44 0 0 1 .438-.437zm-.336 3.585v-2.26h.672v2.255c0 .167.06.227.252.227v.546s-.06.012-.132.012c-.546 0-.792-.264-.792-.78zM164.553 122.82c-.102.023-.27.042-.372.042-.665 0-1.056-.288-1.056-.936v-1.565h-.545v-.414l.545-.155v-.714l.672-.193v.907h.845v.569h-.845v1.487c0 .3.15.444.492.444.102 0 .192-.012.264-.024v.552zM166.185 120.99c.9.08 1.134.349 1.134.906 0 .516-.318.966-1.278.966-.413 0-.785-.078-.989-.162v-.576c.198.072.516.168.894.168.48 0 .713-.108.713-.371 0-.223-.096-.336-.497-.372-.906-.079-1.128-.36-1.128-.876s.336-.954 1.217-.954c.408 0 .696.048.93.15v.582a2.51 2.51 0 0 0-.918-.168c-.353 0-.576.102-.576.372 0 .21.109.3.498.336zM146.943 131.821c-.255-.376-.626-1.291-.626-2.558s.37-2.182.626-2.557h.375c-.255.375-.63 1.29-.63 2.557s.375 2.182.63 2.558h-.375zM149.32 128.973c0-.326-.191-.425-.502-.425-.325 0-.49.054-.675.16v2.082h-.35v-2.502h.195l.075.21c.235-.176.49-.261.755-.261.596 0 .851.27.851.751v1.802h-.35v-1.817zM152.22 128.748h-2.002v-.33h2.002v.33zm0 .66h-2.002v-.33h2.002v.33zM153.017 130.57l.827-.05v-3.169l-.966.18v-.215l1.166-.33h.14v3.533l.826.05v.22h-1.993v-.22zM156.168 130.46l-.325.956h-.25l.125-.956h.45zM158.635 129.384h.535v.31h-.535v1.096h-.34v-1.096h-1.627v-.21l1.711-2.498h.256v2.398zm-.34 0l.01-1.807-1.242 1.816 1.231-.01zM160.918 130.84c-1.07 0-1.15-.751-1.15-1.927s.08-1.927 1.15-1.927c1.081 0 1.151.751 1.151 1.927s-.07 1.927-1.15 1.927zm0-3.543c-.79 0-.8.655-.8 1.616s.01 1.617.8 1.617c.781 0 .801-.656.801-1.617s-.02-1.616-.8-1.616zM164.774 128.908c-.12.226-.4.49-.9.49-1.026 0-1.132-.7-1.132-1.206s.155-1.206 1.131-1.206c1.076 0 1.222.711 1.222 1.776 0 1.232-.276 2.078-1.377 2.078-.485 0-.75-.1-.876-.17v-.33c.185.094.476.18.876.18.79 0 1.056-.672 1.056-1.612zm-.9-1.611c-.681 0-.781.555-.781.895 0 .34.06.897.78.897.706 0 .851-.506.851-.897 0-.4-.13-.895-.85-.895zM165.567 131.821c.255-.376.63-1.291.63-2.558s-.375-2.182-.63-2.557h.375c.256.375.626 1.29.626 2.557s-.37 2.182-.626 2.558h-.375z"/></g><g><path d="M150.352 78.14v-.642c.246-.12.738-.204 1.2-.204 1.127 0 1.583.48 1.583 1.23 0 .454-.246.809-.582.97.42.108.726.498.726 1.05 0 .82-.486 1.391-1.716 1.391-.467 0-.935-.078-1.217-.204v-.641c.378.162.774.221 1.188.221.779 0 1.043-.324 1.043-.767 0-.528-.288-.702-.888-.702h-.839v-.612h.857c.486 0 .726-.263.726-.641 0-.438-.264-.678-.954-.678-.401 0-.755.072-1.127.228zM153.952 78.14v-.642c.246-.12.738-.204 1.2-.204 1.127 0 1.583.48 1.583 1.23 0 .454-.246.809-.582.97.42.108.726.498.726 1.05 0 .82-.486 1.391-1.716 1.391-.467 0-.935-.078-1.217-.204v-.641c.378.162.774.221 1.188.221.779 0 1.043-.324 1.043-.767 0-.528-.288-.702-.888-.702h-.839v-.612h.858c.485 0 .725-.263.725-.641 0-.438-.264-.678-.953-.678-.402 0-.756.072-1.128.228zM158.571 79.669c-.743 0-1.085-.384-1.085-1.188 0-.798.342-1.187 1.085-1.187s1.08.39 1.08 1.187-.336 1.188-1.08 1.188zm0-.54c.324 0 .474-.157.474-.648 0-.492-.15-.641-.474-.641-.33 0-.473.149-.473.641 0 .497.144.648.473.648zm-.431 2.734l3.184-4.497h.617l-3.178 4.497h-.623zm3.376.072c-.744 0-1.086-.39-1.086-1.187s.342-1.188 1.086-1.188c.743 0 1.08.384 1.08 1.188 0 .798-.337 1.187-1.08 1.187zm0-.546c.324 0 .467-.15.467-.641 0-.498-.143-.648-.467-.648-.33 0-.474.156-.474.648 0 .491.144.641.474.641z"/></g><g><path d="M204.78 122.79v-4.497h.67v4.497h-.67zM208.073 118.22c.533 0 .84.102 1.055.192v.641a2.435 2.435 0 0 0-1.013-.203c-.858 0-1.205.581-1.205 1.69s.347 1.692 1.205 1.692c.407 0 .672-.066 1.013-.204v.642c-.215.09-.522.192-1.055.192-1.331 0-1.854-.846-1.854-2.321s.523-2.32 1.854-2.32zM209.77 121.375v-3.082h.673v3.021c0 .846.588.936.959.936.372 0 .96-.09.96-.936v-3.021h.672v3.082c0 1.259-1.02 1.487-1.632 1.487-.612 0-1.631-.228-1.631-1.487zM215.975 120.296c-.39 0-.708.09-.936.18v-.583c.234-.101.63-.174.984-.174.983 0 1.21.432 1.21 1.068v2.003h-.395l-.108-.24a1.45 1.45 0 0 1-.905.312c-.774 0-1.032-.48-1.032-.96 0-.647.42-.923 1.098-.977l.67-.054v-.15c0-.306-.143-.425-.586-.425zm-.042 1.109c-.3.035-.474.15-.474.46 0 .23.096.445.461.445.27 0 .456-.078.642-.198v-.78l-.629.073zM219.796 119.953v-1.66h.672v4.497h-.396l-.108-.24c-.263.192-.57.312-.971.312-.875 0-1.2-.588-1.2-1.571 0-.978.325-1.572 1.2-1.572.3 0 .587.096.803.234zm-1.325 1.338c0 .557.09 1 .678 1 .317 0 .527-.107.647-.173v-1.655a1.284 1.284 0 0 0-.647-.174c-.588 0-.678.45-.678 1.002zM224.583 120.673c0-.282-.162-.384-.425-.384-.294 0-.493.09-.648.186.012.108.018.21.018.33v1.985h-.672v-2.117c0-.282-.155-.384-.426-.384-.275 0-.474.084-.629.174v2.327h-.672v-2.998h.396l.108.239c.252-.197.612-.312.905-.312.402 0 .642.115.768.3.27-.191.63-.3.96-.3.707 0 .99.384.99.954v2.117h-.673v-2.117zM226.288 118.467a.44.44 0 0 1 .439.437.44.44 0 0 1-.439.438.44.44 0 0 1-.437-.438.44.44 0 0 1 .437-.437zm-.335 3.585v-2.26h.671v2.255c0 .167.061.227.252.227v.546s-.06.012-.131.012c-.546 0-.792-.264-.792-.78zM228.508 120.99c.9.08 1.134.349 1.134.906 0 .516-.318.966-1.277.966-.414 0-.786-.078-.99-.162v-.576c.198.072.516.168.894.168.48 0 .713-.108.713-.371 0-.223-.096-.336-.497-.372-.906-.079-1.128-.36-1.128-.876s.336-.954 1.218-.954c.407 0 .695.048.928.15v.582a2.508 2.508 0 0 0-.917-.168c-.353 0-.576.102-.576.372 0 .21.109.3.498.336zM231.298 120.99c.9.08 1.134.349 1.134.906 0 .516-.318.966-1.277.966-.414 0-.786-.078-.99-.162v-.576c.198.072.516.168.894.168.48 0 .713-.108.713-.371 0-.223-.096-.336-.497-.372-.906-.079-1.128-.36-1.128-.876s.336-.954 1.218-.954c.407 0 .695.048.928.15v.582a2.508 2.508 0 0 0-.917-.168c-.353 0-.576.102-.576.372 0 .21.109.3.498.336zM233.41 118.467a.44.44 0 0 1 .439.437.44.44 0 0 1-.438.438.44.44 0 0 1-.438-.438.44.44 0 0 1 .438-.437zm-.335 3.585v-2.26h.671v2.255c0 .167.061.227.252.227v.546s-.06.012-.131.012c-.546 0-.792-.264-.792-.78zM234.473 121.29c0-.923.264-1.57 1.331-1.57s1.331.647 1.331 1.57c0 .924-.264 1.572-1.33 1.572s-1.332-.648-1.332-1.571zm1.985 0c0-.64-.084-1.007-.654-1.007-.57 0-.653.366-.653 1.008s.084 1.007.653 1.007c.57 0 .654-.366.654-1.007zM239.548 122.79v-2.057c0-.306-.156-.444-.474-.444-.312 0-.528.084-.69.174v2.327h-.672v-2.998h.397l.107.239c.306-.21.648-.312.972-.312.762 0 1.031.378 1.031.954v2.117h-.67zM241.93 120.99c.9.08 1.134.349 1.134.906 0 .516-.318.966-1.277.966-.415 0-.787-.078-.99-.162v-.576c.198.072.516.168.894.168.48 0 .713-.108.713-.371 0-.223-.096-.336-.497-.372-.907-.079-1.128-.36-1.128-.876s.336-.954 1.217-.954c.408 0 .696.048.93.15v.582a2.508 2.508 0 0 0-.918-.168c-.353 0-.576.102-.576.372 0 .21.108.3.498.336zM214.318 130.821c-.255-.376-.626-1.291-.626-2.558s.37-2.182.626-2.557h.375c-.255.375-.63 1.29-.63 2.557s.375 2.182.63 2.558h-.375zM216.694 127.973c0-.326-.19-.425-.501-.425-.325 0-.49.054-.675.16v2.082h-.35v-2.502h.195l.075.21c.234-.176.49-.261.755-.261.595 0 .851.27.851.751v1.802h-.35v-1.817zM219.594 127.748h-2.002v-.33h2.002v.33zm0 .66h-2.002v-.33h2.002v.33zM220.392 129.57l.826-.05v-3.169l-.966.18v-.215l1.166-.33h.141v3.533l.825.05v.22h-1.992v-.22zM223.542 129.46l-.325.956h-.25l.125-.956h.45zM225.314 126.306c-.35 0-.6.05-.942.196v-.341c.206-.095.506-.175.937-.175 1.05 0 1.201.581 1.201 1.001 0 .64-.355 1.136-1.982 2.487l1.982-.01v.326h-2.432v-.255c1.997-1.687 2.077-2.023 2.077-2.548 0-.386-.14-.68-.841-.68zM227.027 128.734c0-.376.19-.796.62-.92a.85.85 0 0 1-.495-.787c0-.546.29-1.041 1.141-1.041s1.141.495 1.141 1.041a.85.85 0 0 1-.495.786c.43.125.62.545.62.921 0 .585-.33 1.106-1.266 1.106-.936 0-1.266-.52-1.266-1.106zm.37 0c0 .36.19.796.896.796.705 0 .896-.436.896-.796 0-.506-.31-.736-.896-.736-.586 0-.896.23-.896.736zm1.667-1.707c0-.33-.135-.73-.77-.73s-.772.4-.772.73c0 .32.206.661.771.661s.77-.34.77-.66zM231.293 129.84c-1.07 0-1.151-.751-1.151-1.927s.08-1.927 1.151-1.927c1.081 0 1.15.751 1.15 1.927s-.069 1.927-1.15 1.927zm0-3.543c-.79 0-.8.655-.8 1.616s.01 1.617.8 1.617c.78 0 .801-.656.801-1.617s-.02-1.616-.8-1.616zM232.942 130.821c.255-.376.63-1.291.63-2.558s-.375-2.182-.63-2.557h.375c.256.375.626 1.29.626 2.557s-.37 2.182-.626 2.558h-.375z"/></g><g><path d="M218.422 54.006c.18-.258.468-.462.972-.462 1.098 0 1.23.845 1.23 1.458 0 .605-.216 1.45-1.38 1.45-1.277 0-1.475-.815-1.475-2.068 0-1.463.275-2.573 1.679-2.573.51 0 .893.108 1.061.204v.642a2.268 2.268 0 0 0-1.025-.216c-.81 0-1.056.623-1.062 1.565zm.823 1.84c.61 0 .707-.48.707-.844 0-.367-.06-.846-.707-.846-.642 0-.78.491-.78.846 0 .425.125.844.78.844zM222.718 52.428c-.384 0-.731.073-1.127.235v-.642c.276-.126.678-.21 1.163-.21 1.224 0 1.457.642 1.457 1.266 0 .677-.372 1.36-2.014 2.692l2.068-.024v.636h-2.938v-.474c2.069-1.817 2.189-2.237 2.189-2.807 0-.39-.162-.672-.798-.672zM225.946 54.186c-.743 0-1.085-.384-1.085-1.187 0-.798.342-1.188 1.085-1.188.744 0 1.08.39 1.08 1.188 0 .797-.336 1.187-1.08 1.187zm0-.54c.324 0 .473-.156.473-.647 0-.492-.15-.642-.473-.642-.33 0-.474.15-.474.642 0 .497.145.647.474.647zm-.432 2.735l3.185-4.497h.617l-3.178 4.497h-.624zm3.376.072c-.743 0-1.085-.39-1.085-1.188s.342-1.187 1.085-1.187c.744 0 1.08.384 1.08 1.187 0 .798-.336 1.188-1.08 1.188zm0-.546c.324 0 .468-.15.468-.642 0-.498-.144-.647-.468-.647-.329 0-.474.155-.474.647s.145.642.474.642z"/></g><g><path d="M268.616 118.91v3.88h-.672v-3.88h-1.17v-.617h3.012v.617h-1.17zM269.655 121.29c0-.923.263-1.57 1.33-1.57s1.332.647 1.332 1.57c0 .924-.264 1.572-1.331 1.572s-1.331-.648-1.331-1.571zm1.985 0c0-.64-.084-1.007-.654-1.007-.57 0-.654.366-.654 1.008s.084 1.007.654 1.007c.57 0 .654-.366.654-1.007zM274.616 122.82a2 2 0 0 1-.371.042c-.666 0-1.056-.288-1.056-.936v-1.565h-.546v-.414l.546-.155v-.714l.672-.193v.907h.844v.569h-.844v1.487c0 .3.15.444.491.444.103 0 .192-.012.264-.024v.552zM276.248 120.296c-.39 0-.708.09-.935.18v-.583c.233-.101.629-.174.983-.174.984 0 1.211.432 1.211 1.068v2.003h-.395l-.109-.24a1.45 1.45 0 0 1-.905.312c-.773 0-1.031-.48-1.031-.96 0-.647.42-.923 1.097-.977l.671-.054v-.15c0-.306-.143-.425-.587-.425zm-.042 1.109c-.3.035-.473.15-.473.46 0 .23.096.445.46.445.271 0 .457-.078.642-.198v-.78l-.629.073zM278.21 122.052v-3.76h.672v3.755c0 .167.06.227.252.227v.546s-.06.012-.132.012c-.546 0-.792-.264-.792-.78zM280.953 122.052v-3.76h.671v3.755c0 .167.06.227.252.227v.546s-.06.012-.132.012c-.545 0-.791-.264-.791-.78zM283.682 119.72c1.055 0 1.223.695 1.223 1.523 0 .101-.006.197-.012.294h-1.865c.012.449.174.743.786.743.378 0 .69-.066.953-.18v.576c-.342.144-.731.186-1.056.186-1 0-1.36-.6-1.36-1.571 0-.966.354-1.572 1.331-1.572zm-.654 1.35h1.2c0-.41-.024-.769-.546-.769-.492 0-.63.318-.654.768zM287.33 122.79v-2.057c0-.306-.157-.444-.474-.444-.312 0-.527.084-.69.174v2.327h-.671v-2.998h.395l.108.239c.306-.21.648-.312.972-.312.76 0 1.031.378 1.031.954v2.117h-.671zM289.778 121.998c-.126 0-.246-.006-.348-.024a.262.262 0 0 0-.084.174c0 .102.054.156.18.174l1.085.132c.594.072.803.342.803.84 0 .773-.815 1.067-1.684 1.067-.804 0-1.386-.258-1.386-.876 0-.407.306-.647.624-.743v-.006a.477.477 0 0 1-.234-.414c0-.222.132-.378.27-.485-.342-.193-.48-.54-.48-.978 0-.684.336-1.14 1.254-1.14.216 0 .395.025.551.073h1.038v.425l-.426.12c.06.156.09.33.09.522 0 .684-.336 1.139-1.253 1.139zm-.21.882c-.306.053-.582.192-.582.48 0 .335.24.467.792.467.527 0 .989-.155.989-.516 0-.204-.102-.294-.348-.323l-.851-.108zm.21-1.415c.504 0 .617-.264.617-.606s-.113-.605-.617-.605-.618.263-.618.605.114.606.618.606zM293.503 122.82a2.01 2.01 0 0 1-.372.042c-.665 0-1.055-.288-1.055-.936v-1.565h-.545v-.414l.545-.155v-.714l.671-.193v.907h.846v.569h-.846v1.487c0 .3.15.444.493.444.101 0 .191-.012.263-.024v.552zM295.423 120.289c-.311 0-.527.084-.69.174v2.327h-.671v-4.497h.672v1.648c.234-.138.498-.222.804-.222.761 0 1.03.378 1.03.954v2.117h-.67v-2.057c0-.306-.156-.444-.475-.444zM298.323 121.29c0-.923.263-1.57 1.33-1.57s1.332.647 1.332 1.57c0 .924-.264 1.572-1.331 1.572s-1.331-.648-1.331-1.571zm1.984 0c0-.64-.084-1.007-.653-1.007-.57 0-.655.366-.655 1.008s.084 1.007.655 1.007c.57 0 .653-.366.653-1.007zM303.523 118.862a1.327 1.327 0 0 0-.444-.06c-.3 0-.54.114-.54.456v.534h.846v.569h-.846v2.429h-.671v-2.429h-.546v-.414l.546-.155v-.594c0-.642.36-.978 1.163-.978.198 0 .378.03.492.073v.569zM306.127 120.99c.9.08 1.134.349 1.134.906 0 .516-.318.966-1.277.966-.414 0-.786-.078-.99-.162v-.576c.198.072.516.168.894.168.48 0 .713-.108.713-.371 0-.223-.096-.336-.497-.372-.906-.079-1.128-.36-1.128-.876s.336-.954 1.218-.954c.407 0 .695.048.93.15v.582a2.517 2.517 0 0 0-.919-.168c-.353 0-.576.102-.576.372 0 .21.109.3.498.336zM309.565 122.82a2.01 2.01 0 0 1-.372.042c-.665 0-1.056-.288-1.056-.936v-1.565h-.545v-.414l.545-.155v-.714l.672-.193v.907h.846v.569h-.846v1.487c0 .3.15.444.492.444.102 0 .192-.012.264-.024v.552zM311.198 120.296c-.39 0-.708.09-.936.18v-.583c.234-.101.629-.174.984-.174.983 0 1.21.432 1.21 1.068v2.003h-.395l-.108-.24a1.45 1.45 0 0 1-.906.312c-.773 0-1.031-.48-1.031-.96 0-.647.42-.923 1.098-.977l.67-.054v-.15c0-.306-.143-.425-.586-.425zm-.042 1.109c-.3.035-.474.15-.474.46 0 .23.096.445.461.445.27 0 .456-.078.642-.198v-.78l-.63.073zM313.591 119.792l.678 2.14.678-2.14h.743l-1.715 4.497h-.75l.744-1.6-1.121-2.897h.743zM281.693 130.821c-.256-.376-.626-1.291-.626-2.558s.37-2.182.626-2.557h.375c-.255.375-.631 1.29-.631 2.557s.376 2.182.63 2.558h-.374zM284.069 127.973c0-.326-.19-.425-.501-.425-.325 0-.49.054-.676.16v2.082h-.35v-2.502h.195l.075.21c.235-.176.49-.261.756-.261.595 0 .85.27.85.751v1.802h-.35v-1.817zM286.97 127.748h-2.003v-.33h2.002v.33zm0 .66h-2.003v-.33h2.002v.33zM287.767 129.57l.826-.05v-3.169l-.966.18v-.215l1.166-.33h.14v3.533l.826.05v.22h-1.992v-.22zM290.917 129.46l-.325.956h-.25l.125-.956h.45zM292.688 126.306c-.35 0-.6.05-.94.196v-.341c.205-.095.504-.175.935-.175 1.05 0 1.201.581 1.201 1.001 0 .64-.355 1.136-1.981 2.487l1.981-.01v.326h-2.432v-.255c1.997-1.687 2.077-2.023 2.077-2.548 0-.386-.14-.68-.841-.68zM294.742 129.79l1.827-3.444h-2.153v-.31h2.503v.24l-1.737 3.514h-.44zM297.812 127.918c.12-.225.4-.49.9-.49 1.027 0 1.132.7 1.132 1.206s-.155 1.206-1.132 1.206c-1.075 0-1.22-.71-1.22-1.777 0-1.231.275-2.077 1.376-2.077.485 0 .75.1.876.17v.331c-.185-.096-.476-.18-.876-.18-.79 0-1.056.67-1.056 1.61zm.9 1.612c.681 0 .782-.556.782-.897 0-.34-.061-.895-.782-.895-.705 0-.85.505-.85.895 0 .4.13.897.85.897zM300.317 130.821c.255-.376.63-1.291.63-2.558s-.375-2.182-.63-2.557h.375c.255.375.626 1.29.626 2.557s-.371 2.182-.626 2.558h-.375z"/></g><g><path d="M285.797 47.518c.18-.258.468-.462.972-.462 1.097 0 1.228.846 1.228 1.458 0 .606-.215 1.452-1.378 1.452-1.278 0-1.476-.816-1.476-2.07 0-1.463.276-2.572 1.68-2.572.51 0 .893.107 1.061.204v.642a2.271 2.271 0 0 0-1.025-.216c-.81 0-1.056.623-1.062 1.564zm.822 1.841c.61 0 .708-.48.708-.845 0-.366-.061-.845-.708-.845-.642 0-.78.49-.78.845 0 .426.126.845.78.845zM290.945 47.77c-.18.258-.468.462-.972.462-1.098 0-1.23-.846-1.23-1.457 0-.605.216-1.451 1.38-1.451 1.277 0 1.475.815 1.475 2.068 0 1.464-.282 2.574-1.685 2.574-.51 0-.9-.109-1.068-.205v-.641c.24.114.558.216 1.032.216.81 0 1.06-.624 1.068-1.566zm-.823-1.84c-.61 0-.707.479-.707.845 0 .365.06.846.707.846.642 0 .78-.492.78-.846 0-.426-.125-.846-.78-.846zM293.32 47.699c-.743 0-1.085-.384-1.085-1.188 0-.797.342-1.187 1.086-1.187.743 0 1.079.39 1.079 1.187s-.336 1.188-1.08 1.188zm0-.54c.324 0 .474-.156.474-.648s-.15-.641-.473-.641c-.33 0-.474.15-.474.641 0 .497.144.648.474.648zm-.43 2.734l3.183-4.497h.618l-3.179 4.497h-.623zm3.375.073c-.743 0-1.086-.39-1.086-1.188s.343-1.187 1.086-1.187 1.08.383 1.08 1.187c0 .798-.337 1.188-1.08 1.188zm0-.546c.324 0 .468-.15.468-.642 0-.498-.144-.647-.468-.647-.33 0-.474.155-.474.647 0 .491.144.642.474.642z"/></g><g><path d="M183.671 39.398h-.34l.46-3.754h1.147c.935 0 1.186.541 1.116 1.126-.07.586-.46 1.126-1.396 1.126h-.807l-.18 1.502zm.22-1.816h.852c.705 0 .895-.451.94-.812.045-.36-.035-.81-.74-.81h-.851l-.2 1.622zM189.158 38.852l-2.002-1.166v-.33l2.002-1.166v.365l-1.657.966 1.657.966v.365zM190.907 39.448c-1.07 0-1.15-.751-1.15-1.927s.08-1.927 1.15-1.927c1.081 0 1.151.751 1.151 1.927s-.07 1.927-1.15 1.927zm0-3.543c-.79 0-.8.655-.8 1.616s.01 1.617.8 1.617c.78 0 .8-.656.8-1.617s-.02-1.616-.8-1.616zM192.881 38.948c.14 0 .25.11.25.25s-.11.25-.25.25-.25-.11-.25-.25.11-.25.25-.25zM194.857 39.448c-1.07 0-1.15-.751-1.15-1.927s.08-1.927 1.15-1.927c1.08 0 1.151.751 1.151 1.927s-.07 1.927-1.151 1.927zm0-3.543c-.79 0-.8.655-.8 1.616s.01 1.617.8 1.617c.781 0 .8-.656.8-1.617s-.019-1.616-.8-1.616zM197.857 39.448c-1.07 0-1.15-.751-1.15-1.927s.08-1.927 1.15-1.927c1.08 0 1.151.751 1.151 1.927s-.07 1.927-1.151 1.927zm0-3.543c-.79 0-.8.655-.8 1.616s.01 1.617.8 1.617c.781 0 .8-.656.8-1.617s-.019-1.616-.8-1.616zM199.907 39.177l.825-.05V35.96l-.966.18v-.215l1.166-.33h.14v3.533l.826.05v.22h-1.991v-.22z"/></g></g><g fill="#4c4c4d" data-name="Layer 1"><path d="M33.992 97.752h-4.497v-.671h4.497v.67zM33.992 94.453h-2.057c-.306 0-.443.156-.443.473 0 .313.084.528.173.69h2.327v.672h-2.998v-.396l.24-.108a1.72 1.72 0 0 1-.312-.97c0-.763.378-1.032.953-1.032h2.117v.67zM33.47 91.801c0-.348-.054-.57-.138-.786h.582c.103.234.15.516.15.827 0 1.062-.635 1.385-1.57 1.385s-1.572-.323-1.572-1.385c0-.311.048-.593.15-.827h.581a2.006 2.006 0 0 0-.137.786c0 .582.395.75.977.75s.978-.168.978-.75zM31.534 88.675a1.172 1.172 0 0 0-.037.33c0 .353.084.617.18.767h2.315v.672h-2.998v-.396l.24-.108a1.516 1.516 0 0 1-.312-.947 1.5 1.5 0 0 1 .036-.318h.576zM30.922 87c0-1.054.696-1.222 1.523-1.222.102 0 .198.006.294.012v1.865c.45-.013.743-.174.743-.786 0-.378-.066-.69-.18-.954h.576c.144.342.186.732.186 1.056 0 1.001-.6 1.36-1.57 1.36-.967 0-1.572-.353-1.572-1.33zm1.349.655v-1.2c-.408 0-.768.024-.768.546 0 .492.318.63.768.654zM31.497 84.114c0 .39.09.708.18.936h-.581c-.102-.234-.174-.63-.174-.983 0-.984.431-1.212 1.067-1.212h2.003v.396l-.24.108c.198.24.312.575.312.905 0 .774-.48 1.032-.96 1.032-.647 0-.923-.42-.977-1.098l-.054-.67h-.15c-.305 0-.426.143-.426.586zm1.11.043c.036.299.15.473.462.473.227 0 .444-.096.444-.461a1.1 1.1 0 0 0-.199-.642h-.779l.072.63zM32.193 81.138c.078-.899.348-1.133.906-1.133.515 0 .965.318.965 1.277 0 .414-.078.786-.162.99h-.575a2.63 2.63 0 0 0 .168-.894c0-.479-.108-.713-.373-.713-.221 0-.335.095-.371.498-.078.905-.36 1.127-.876 1.127s-.953-.336-.953-1.217c0-.408.048-.696.15-.93h.581a2.51 2.51 0 0 0-.168.918c0 .354.102.575.372.575.21 0 .3-.108.336-.498zM30.922 78.175c0-1.055.696-1.223 1.523-1.223.102 0 .198.006.294.012v1.865c.45-.013.743-.174.743-.786 0-.378-.066-.69-.18-.954h.576c.144.341.186.732.186 1.056 0 1.001-.6 1.36-1.57 1.36-.967 0-1.572-.353-1.572-1.33zm1.349.654v-1.2c-.408 0-.768.024-.768.546 0 .492.318.63.768.654zM29.668 74.766a.44.44 0 0 1 .438-.437c.24 0 .438.197.438.437s-.198.438-.438.438a.44.44 0 0 1-.438-.438zm3.586.336h-2.26v-.672h2.254c.168 0 .228-.06.228-.252h.546s.012.061.012.133c0 .545-.264.791-.78.791zM33.992 71.785h-2.057c-.306 0-.443.156-.443.474 0 .312.084.527.173.689h2.327v.672h-2.998v-.396l.24-.108a1.72 1.72 0 0 1-.312-.97c0-.763.378-1.032.953-1.032h2.117v.67zM33.992 66.746h-2.02v1.823h2.02v.671h-4.497v-.67h1.858v-1.824h-1.858v-.672h4.497v.672zM29.423 63.547c0-.534.101-.84.192-1.055h.641a2.424 2.424 0 0 0-.204 1.013c0 .857.582 1.206 1.692 1.206 1.109 0 1.69-.349 1.69-1.206 0-.408-.065-.671-.204-1.013h.642c.09.216.192.521.192 1.055 0 1.332-.845 1.853-2.32 1.853-1.476 0-2.321-.521-2.321-1.853zM33.992 61.147v.671h-4.497v-1.463c0-1.163.521-1.535 1.337-1.535.581 0 1.007.18 1.2.731l1.96-.94v.785l-1.829.816v.935h1.83zm-2.44 0v-.888c0-.624-.354-.708-.72-.708-.372 0-.72.084-.72.708v.888h1.44zM32.577 58.123h-3.082v-.672h3.022c.845 0 .936-.587.936-.96s-.09-.96-.936-.96h-3.022v-.67h3.082c1.26 0 1.487 1.02 1.487 1.63s-.228 1.632-1.487 1.632zM35.227 52.272c-.45.307-1.547.75-3.064.75s-2.614-.443-3.064-.75v-.678c.45.307 1.547.756 3.064.756s2.614-.449 3.064-.756v.678zM31.797 50.065c0 .744-.384 1.086-1.187 1.086-.798 0-1.187-.342-1.187-1.086 0-.743.39-1.079 1.187-1.079.798 0 1.187.336 1.187 1.08zm2.195.432l-4.497-3.184v-.618l4.497 3.179v.623zm-2.734-.432c0-.323-.157-.473-.648-.473s-.642.15-.642.473c0 .33.15.474.642.474.498 0 .648-.144.648-.474zm2.806-2.944c0 .744-.39 1.086-1.187 1.086-.798 0-1.188-.342-1.188-1.086 0-.743.384-1.08 1.188-1.08.797 0 1.187.337 1.187 1.08zm-.546 0c0-.323-.15-.468-.641-.468-.498 0-.648.145-.648.468 0 .33.156.473.648.473s.641-.143.641-.473zM35.227 45.594c-.45-.305-1.547-.755-3.064-.755s-2.614.45-3.064.755v-.677c.45-.306 1.547-.75 3.064-.75s2.614.444 3.064.75v.677z"/></g></svg>